<?xml version="1.0" standalone="no"?>
<!DOCTYPE svg PUBLIC "-//W3C//DTD SVG 1.1//EN" "http://www.w3.org/Graphics/SVG/1.1/DTD/svg11.dtd" >
<svg xmlns="http://www.w3.org/2000/svg" xmlns:xlink="http://www.w3.org/1999/xlink" version="1.1">
<metadata></metadata>
<defs>
<font id="assistantsemibold" horiz-adv-x="1036" >
<font-face units-per-em="2048" ascent="1536" descent="-512" />
<missing-glyph horiz-adv-x="409" />
<glyph unicode="&#xfb01;" horiz-adv-x="1148" d="M57 836v155l136 10v127q0 162 77.5 255.5t237.5 93.5q90 0 176 -35l-41 -156q-55 25 -111 25q-133 -1 -133 -181v-129h203v-165h-203v-836h-206v836h-136zM762 1315q0 53 36 88t91 35t91 -35t36 -88q0 -55 -36 -90t-91 -35t-91 35t-36 90zM785 0v1001h207v-1001h-207z " />
<glyph unicode="&#xfb02;" horiz-adv-x="1167" d="M57 836v155l136 10v127q0 162 77.5 255.5t237.5 93.5q90 0 176 -35l-41 -156q-55 25 -111 25q-133 -1 -133 -181v-129h203v-165h-203v-836h-206v836h-136zM785 233v1219h207v-1231q0 -39 14 -57.5t35 -18.5q18 0 37 5l26 -156q-47 -18 -112 -19q-109 0 -158 65.5 t-49 192.5z" />
<glyph horiz-adv-x="0" />
<glyph horiz-adv-x="682" />
<glyph unicode=" "  horiz-adv-x="409" />
<glyph unicode="&#x09;" horiz-adv-x="409" />
<glyph unicode="&#xa0;" horiz-adv-x="409" />
<glyph unicode="!" horiz-adv-x="622" d="M172 121q0 63 40 105t99 42t99.5 -42t40.5 -105t-40 -104.5t-100 -41.5q-59 0 -99 41t-40 105zM207 1372h209l-6 -215l-29 -731h-139l-29 731z" />
<glyph unicode="&#x22;" horiz-adv-x="937" d="M162 1411h215l-6 -213l-41 -360h-121l-41 360zM559 1411h215l-6 -213l-41 -360h-121l-41 360z" />
<glyph unicode="#" d="M72 408v139h176l35 280h-170v140h186l47 364h127l-45 -364h254l47 364h127l-45 -364h164v-140h-180l-35 -280h174v-139h-191l-49 -408h-129l49 408h-254l-49 -408h-129l49 408h-159zM377 547h254l35 280h-254z" />
<glyph unicode="$" d="M98 135l95 141q160 -131 309 -131q104 0 157.5 50.5t53.5 140.5q0 66 -34 113t-83 78.5t-137 76.5q-98 49 -160.5 92t-105.5 110.5t-43 164.5q0 139 81.5 234t219.5 118v207h145v-205q92 -10 161.5 -50t133.5 -108l-109 -120q-61 59 -114.5 85.5t-126.5 26.5 q-88 0 -139.5 -48t-51.5 -130q0 -55 31 -96t77 -69t126 -66q104 -51 170.5 -95.5t112.5 -119t46 -185.5q0 -145 -84 -243.5t-233 -122.5v-209h-145v202q-96 10 -190.5 52.5t-162.5 105.5z" />
<glyph unicode="%" horiz-adv-x="1697" d="M66 965q0 199 86 310t227 111t227 -111.5t86 -309.5q0 -201 -86 -313.5t-227 -112.5t-227 112.5t-86 313.5zM217 965q0 -150 44 -226.5t118 -76.5t118 76.5t44 226.5t-44 224.5t-118 74.5t-118 -75t-44 -224zM414 -25l735 1391h131l-735 -1391h-131zM1006 401 q0 199 86 310.5t227 111.5t227 -111.5t86 -310.5q0 -201 -86 -313.5t-227 -112.5t-227 113t-86 313zM1157 401q0 -150 44 -226.5t118 -76.5t118 77t44 226q0 150 -44 224.5t-118 74.5t-118 -74.5t-44 -224.5z" />
<glyph unicode="&#x26;" horiz-adv-x="1282" d="M61 350q0 125 69 214t189 171q-86 168 -86 303q0 90 41 166t115 119t170 43q131 0 207 -76t76 -200q0 -119 -77 -205t-220 -189q137 -190 321 -336q121 160 178 373h191q-82 -276 -231 -471q141 -90 245 -117l-53 -170q-150 37 -317 150q-170 -150 -398 -150 q-125 0 -220 49.5t-147.5 134.5t-52.5 191zM260 362q0 -100 69.5 -162.5t176.5 -62.5q115 0 233 92q-201 172 -333 365q-70 -55 -108 -110.5t-38 -121.5zM410 1040q0 -96 57 -211q102 66 156.5 124.5t54.5 133.5q0 59 -28.5 97.5t-88.5 38.5q-68 0 -109.5 -51.5 t-41.5 -131.5z" />
<glyph unicode="'" horiz-adv-x="540" d="M162 1411h215l-6 -213l-41 -360h-121l-41 360z" />
<glyph unicode="(" horiz-adv-x="645" d="M162 569q0 260 68.5 487.5t201.5 444.5l129 -57q-115 -193 -172 -417t-57 -458q0 -233 57 -457.5t172 -416.5l-129 -57q-133 217 -201.5 444t-68.5 487z" />
<glyph unicode=")" horiz-adv-x="645" d="M84 -305q115 193 172 417t57 457t-57 457.5t-172 417.5l129 57q133 -217 201.5 -444.5t68.5 -487.5t-68.5 -487t-201.5 -444z" />
<glyph unicode="*" horiz-adv-x="878" d="M106 1174l37 108l217 -51l21 227h117l20 -225l219 49l35 -108l-205 -89l117 -198l-94 -68l-150 176l-151 -176l-94 68l116 198z" />
<glyph unicode="+" d="M70 600v152h368v393h160v-393h369v-152h-369v-393h-160v393h-368z" />
<glyph unicode="," horiz-adv-x="540" d="M96 -246q94 39 145.5 103.5t53.5 146.5q-6 -2 -21 -2q-57 0 -98 36t-41 97q0 59 42 96t102 37q75 0 118 -59t43 -164q0 -141 -77.5 -247.5t-219.5 -159.5z" />
<glyph unicode="-" horiz-adv-x="649" d="M86 438v154h479v-154h-479z" />
<glyph unicode="." horiz-adv-x="540" d="M131 121q0 63 40 105t99 42t99.5 -42t40.5 -105t-40 -104.5t-100 -41.5q-59 0 -99 41t-40 105z" />
<glyph unicode="/" horiz-adv-x="710" d="M23 -328l507 1782h144l-508 -1782h-143z" />
<glyph unicode="0" d="M86 657q0 326 114.5 499t317.5 173t317.5 -174t114.5 -498q0 -326 -114.5 -504t-317.5 -178t-317.5 178.5t-114.5 503.5zM285 657q0 -268 62.5 -393t170.5 -125q109 0 171.5 125t62.5 393q0 508 -234 508q-233 0 -233 -508z" />
<glyph unicode="1" horiz-adv-x="948" d="M92 0v170h295v901h-240v131q174 31 291 103h156v-1135h262v-170h-764z" />
<glyph unicode="2" d="M70 1128q92 100 187 150.5t220 50.5q184 0 294 -107.5t110 -285.5q0 -113 -62.5 -231.5t-164 -238.5t-273.5 -302q139 12 219 12h344v-176h-864v121q223 219 343 349t188.5 243.5t68.5 212.5q0 111 -59.5 174t-169.5 63q-133 0 -265 -149z" />
<glyph unicode="3" d="M51 160l101 133q68 -68 145.5 -108t173.5 -40q113 0 183.5 58.5t70.5 156.5q0 115 -91 176.5t-306 61.5v154q352 0 352 223q0 88 -55.5 138t-151.5 50q-137 0 -268 -127l-109 129q182 164 385 164q184 0 296 -90t112 -248q0 -215 -232 -305v-8q123 -31 200 -116t77 -212 q0 -115 -59.5 -199.5t-161 -130t-226.5 -45.5q-270 1 -436 185z" />
<glyph unicode="4" d="M37 346v139l534 820h240v-797h170v-162h-170v-346h-195v346h-579zM246 508h370v332q0 84 11 262h-9q-8 -14 -67 -125q-8 -12 -17.5 -29.5t-21.5 -40.5z" />
<glyph unicode="5" d="M49 156l98 133q68 -66 144 -105t172 -39q117 0 191.5 74t74.5 197t-69.5 192.5t-186.5 69.5q-61 0 -106 -17.5t-109 -58.5l-102 66l41 637h677v-177h-497l-31 -346q88 47 184 47q178 0 293 -103t115 -304q0 -137 -62.5 -238.5t-165 -155t-223.5 -53.5q-145 0 -250.5 49.5 t-187.5 131.5z" />
<glyph unicode="6" d="M94 608q0 246 68.5 408t183.5 237.5t254 75.5q199 0 334 -143l-113 -127q-37 45 -94 72.5t-117 27.5q-139 0 -228 -122t-95 -392q57 72 137 115t156 43q174 0 275 -103.5t101 -300.5q0 -125 -54 -221t-145 -149.5t-200 -53.5q-131 0 -236.5 71t-166 213t-60.5 349z M293 489q16 -176 84.5 -265t177.5 -89q90 0 149.5 72t59.5 192q0 121 -57.5 186.5t-163.5 65.5q-63 0 -128 -39t-122 -123z" />
<glyph unicode="7" d="M90 1128v177h860v-127q-152 -188 -230.5 -359.5t-111.5 -357t-45 -461.5h-211q17 360 98.5 613t270.5 515h-631z" />
<glyph unicode="8" d="M84 334q0 115 67.5 201t172.5 141v8q-180 127 -181 303q0 102 50.5 179t137.5 120t195 43q172 0 274.5 -97t102.5 -253q0 -92 -52 -173t-124 -132v-8q104 -61 164.5 -140.5t60.5 -197.5q0 -98 -54 -179t-152.5 -127.5t-225.5 -46.5q-123 0 -223 46.5t-156.5 128 t-56.5 184.5zM268 354q0 -100 73 -164.5t183 -64.5q105 0 169.5 57.5t64.5 151.5q0 72 -42 121t-104.5 80.5t-185.5 80.5q-72 -51 -115 -117.5t-43 -144.5zM330 987q0 -96 70.5 -151.5t207.5 -110.5q121 115 121 242q0 94 -55.5 153.5t-151.5 59.5q-84 0 -138 -52.5 t-54 -140.5z" />
<glyph unicode="9" d="M78 905q0 125 54 221.5t145.5 149.5t199.5 53q131 0 236.5 -70.5t166 -213t60.5 -349.5q0 -246 -68.5 -407.5t-183.5 -237.5t-254 -76q-199 0 -334 144l113 127q39 -45 95.5 -73t115.5 -28q141 0 229 122t95 392q-57 -74 -137.5 -115.5t-155.5 -41.5q-174 0 -275.5 103.5 t-101.5 299.5zM270 905q0 -121 57.5 -186.5t164.5 -65.5q63 0 128.5 40t120.5 122q-16 176 -83.5 265t-178.5 89q-90 0 -149.5 -71.5t-59.5 -192.5z" />
<glyph unicode=":" horiz-adv-x="540" d="M131 121q0 63 40 105t99 42t99.5 -42t40.5 -105t-40 -104.5t-100 -41.5q-59 0 -99 41t-40 105zM131 838q0 63 40 105t99 42t99.5 -42t40.5 -105t-40 -104.5t-100 -41.5q-59 0 -99 41t-40 105z" />
<glyph unicode=";" horiz-adv-x="540" d="M96 -246q94 39 145.5 103.5t53.5 146.5q-6 -2 -21 -2q-57 0 -98 36t-41 97q0 59 42 96t102 37q75 0 118 -59t43 -164q0 -141 -77.5 -247.5t-219.5 -159.5zM131 838q0 63 40 105t99 42t99.5 -42t40.5 -105t-40 -104.5t-100 -41.5q-59 0 -99 41t-40 105z" />
<glyph unicode="&#x3c;" d="M70 602v156l897 350v-176l-686 -248v-8l686 -248v-176z" />
<glyph unicode="=" d="M70 375v152h897v-152h-897zM70 825v152h897v-152h-897z" />
<glyph unicode="&#x3e;" d="M70 252v176l686 248v8l-686 248v176l897 -350v-156z" />
<glyph unicode="?" horiz-adv-x="892" d="M80 1223q156 174 362 174q162 0 259.5 -88t97.5 -246q0 -84 -37 -149.5t-111 -153.5q-74 -84 -110.5 -149.5t-36.5 -147.5q0 -25 2 -37h-182q-5 41 -5 55q0 96 41 171t117 165q59 72 90 123t31 109q0 80 -47 129t-133 49q-121 0 -221 -111zM279 121q0 63 39.5 105 t99.5 42q59 0 99 -42t40 -105t-40 -104.5t-99 -41.5q-60 0 -99.5 41t-39.5 105z" />
<glyph unicode="@" horiz-adv-x="1767" d="M102 418q0 270 119 479t319.5 324.5t436.5 115.5q209 0 364.5 -87t239.5 -244.5t84 -362.5q0 -172 -63.5 -296t-162 -188.5t-200.5 -64.5q-88 0 -147.5 41t-71.5 115h-4q-49 -61 -117 -100t-131 -39q-113 0 -183.5 78.5t-70.5 216.5q0 115 51 227t143.5 184t204.5 72 q109 0 162 -101h4l25 84h133l-84 -421q-14 -51 -14 -99q0 -123 121 -123q66 0 127 50.5t100 143.5t39 214q0 164 -63.5 292t-190.5 201.5t-311 73.5q-182 0 -346 -98t-264.5 -276.5t-100.5 -405.5q0 -195 79 -335t217 -212t310 -72q86 0 170 24t156 65l51 -119 q-178 -102 -393 -103q-207 0 -374 86t-265.5 254t-98.5 406zM676 418q0 -86 36 -128t97 -42q82 -1 174 112l55 312q-25 41 -53.5 59.5t-66.5 18.5q-72 0 -126.5 -51.5t-85 -128t-30.5 -152.5z" />
<glyph unicode="A" horiz-adv-x="1130" d="M0 0l444 1341h242l444 -1341h-221l-114 383h-467l-115 -383h-213zM379 549h366l-53 180q-29 96 -64.5 223t-52.5 185q-2 16 -10 39h-8q-66 -252 -125 -447z" />
<glyph unicode="B" horiz-adv-x="1214" d="M176 0v1341h416q219 0 345 -78.5t126 -250.5q0 -100 -51 -180t-140 -111v-8q121 -27 193 -108t72 -212q0 -193 -140.5 -293t-371.5 -100h-449zM385 164h215q162 0 247 59.5t85 179.5q0 219 -332 220h-215v-459zM385 780h182q291 0 291 203q0 104 -69.5 149.5t-215.5 45.5 h-188v-398z" />
<glyph unicode="C" horiz-adv-x="1175" d="M102 668q0 213 80 370.5t218.5 242.5t308.5 85q117 0 214 -47t164 -121l-112 -135q-117 121 -262 121q-117 0 -206 -62.5t-139.5 -177.5t-50.5 -270q0 -240 105.5 -378t284.5 -138q168 0 297 143l112 -131q-166 -195 -418 -195q-170 0 -305 82t-213 239t-78 372z" />
<glyph unicode="D" horiz-adv-x="1271" d="M176 0v1341h348q311 0 478 -170t167 -495q0 -326 -165.5 -501t-468.5 -175h-359zM385 170h125q217 0 330.5 128t113.5 378q0 248 -112.5 371.5t-331.5 123.5h-125v-1001z" />
<glyph unicode="E" horiz-adv-x="1091" d="M176 0v1341h793v-176h-584v-377h494v-176h-494v-436h604v-176h-813z" />
<glyph unicode="F" horiz-adv-x="1030" d="M176 0v1341h795v-176h-586v-411h498v-176h-498v-578h-209z" />
<glyph unicode="G" horiz-adv-x="1275" d="M102 668q0 213 82 371.5t224.5 242.5t320.5 84q233 0 397 -168l-112 -135q-57 57 -123 89t-156 32q-125 0 -219 -61.5t-146.5 -177.5t-52.5 -271q0 -242 111 -379t315 -137q63 0 121 17.5t92 49.5v316h-266v172h455v-580q-70 -72 -180.5 -115t-241.5 -43 q-180 0 -320.5 82t-220.5 239t-80 372z" />
<glyph unicode="H" horiz-adv-x="1347" d="M176 0v1341h209v-548h578v548h208v-1341h-208v610h-578v-610h-209z" />
<glyph unicode="I" horiz-adv-x="561" d="M176 0v1341h209v-1341h-209z" />
<glyph unicode="J" horiz-adv-x="999" d="M55 199l146 104q82 -145 219 -145q102 0 151.5 63.5t49.5 206.5v913h208v-931q0 -193 -96 -314t-291 -121q-262 1 -387 224z" />
<glyph unicode="K" horiz-adv-x="1206" d="M176 0v1341h209v-636h6l512 636h234l-416 -518l483 -823h-231l-379 659l-209 -253v-406h-209z" />
<glyph unicode="L" horiz-adv-x="1013" d="M176 0v1341h209v-1165h569v-176h-778z" />
<glyph unicode="M" horiz-adv-x="1509" d="M176 0v1341h242l246 -682l49 -149l41 -121h8q33 98 41 127l47 143l242 682h241v-1341h-192v668q0 111 22 366l4 47h-8l-106 -309l-236 -641h-129l-235 641l-107 309h-8l4 -47q23 -256 23 -366v-668h-189z" />
<glyph unicode="N" horiz-adv-x="1335" d="M176 0v1341h215l447 -792l141 -283h8q-4 66 -8 92q-2 23 -10 137.5t-8 215.5v630h198v-1341h-215l-446 795l-142 280h-8l8 -102q2 -25 10.5 -133.5t8.5 -202.5v-637h-199z" />
<glyph unicode="O" horiz-adv-x="1372" d="M102 676q0 213 74 368.5t206 238.5t304 83t304 -83t206 -238.5t74 -368.5t-74 -372t-206 -244t-304 -85t-304 85t-206 244t-74 372zM317 676q0 -156 45.5 -273.5t129 -181t194.5 -63.5t195 63.5t129 181t45 273.5q0 236 -100.5 372t-268.5 136t-268.5 -136.5 t-100.5 -371.5z" />
<glyph unicode="P" horiz-adv-x="1177" d="M176 0v1341h406q512 0 512 -405q0 -211 -138.5 -318.5t-365.5 -107.5h-205v-510h-209zM385 678h184q162 0 240 63.5t78 194.5q0 129 -79 183.5t-247 54.5h-176v-496z" />
<glyph unicode="Q" horiz-adv-x="1372" d="M102 676q0 213 74 368.5t206 238.5t304 83t304 -83t206 -238.5t74 -368.5q0 -281 -125 -463t-336 -225q45 -82 129 -123t190 -41q82 0 144 20l39 -157q-82 -35 -205 -35q-186 0 -320.5 90t-197.5 242q-145 25 -255 114.5t-170.5 237t-60.5 340.5zM317 676 q0 -162 45.5 -281t129 -183.5t194.5 -64.5t195 64.5t129 183.5t45 281q0 236 -100.5 372t-268.5 136t-268.5 -136.5t-100.5 -371.5z" />
<glyph unicode="R" horiz-adv-x="1191" d="M176 0v1341h438q225 0 354.5 -91t129.5 -298q0 -150 -75 -245t-206 -136l328 -571h-236l-301 543h-223v-543h-209zM385 711h205q147 0 224 60t77 181q0 119 -75 170.5t-226 51.5h-205v-463z" />
<glyph unicode="S" horiz-adv-x="1105" d="M82 174l123 143q74 -74 168 -116.5t190 -42.5q119 0 186.5 52t67.5 140q0 57 -25.5 95t-67.5 62.5t-122 57.5l-186 82q-272 113 -273 350q0 104 56.5 188.5t157 132.5t225.5 48q117 0 223 -45t182 -123l-108 -133q-135 119 -297 119q-104 0 -166 -47t-62 -127 q0 -53 30 -90t72 -59.5t115 -53.5l187 -80q131 -53 201.5 -138t70.5 -222q0 -109 -57.5 -198t-164 -141.5t-249.5 -52.5q-137 0 -261 52.5t-216 146.5z" />
<glyph unicode="T" horiz-adv-x="1110" d="M55 1165v176h1000v-176h-396v-1165h-208v1165h-396z" />
<glyph unicode="U" horiz-adv-x="1333" d="M170 573v768h209v-780q0 -217 76.5 -310t212.5 -93q295 0 295 403v780h200v-768q0 -313 -131 -455.5t-364 -142.5q-236 0 -367 142.5t-131 455.5z" />
<glyph unicode="V" horiz-adv-x="1079" d="M-4 1341h221l201 -696q16 -57 29.5 -106.5t25.5 -89.5q41 -156 68 -242h8q51 172 82 291v-1l41 148l198 696h213l-419 -1341h-246z" />
<glyph unicode="W" horiz-adv-x="1626" d="M41 1341h215l127 -700q49 -287 72 -430h8q39 195 90 430l174 700h184l174 -700l93 -430h8l69 430l127 700h201l-266 -1341h-256l-182 750q-37 172 -62 307h-8q-31 -162 -53 -256q-2 -20 -11 -51l-178 -750h-252z" />
<glyph unicode="X" horiz-adv-x="1083" d="M29 0l385 692l-361 649h232l164 -317q20 -37 59 -115l43 -86h8q55 127 92 201l158 317h221l-360 -659l385 -682h-232l-178 336l-110 217h-9q-37 -82 -102 -217l-174 -336h-221z" />
<glyph unicode="Y" horiz-adv-x="1003" d="M-6 1341h223l158 -358q84 -203 125 -293h8l49 111l78 182l158 358h217l-404 -833v-508h-209v508z" />
<glyph unicode="Z" horiz-adv-x="1105" d="M86 0v125l674 1040h-613v176h871v-124l-674 -1041h680v-176h-938z" />
<glyph unicode="[" horiz-adv-x="645" d="M188 -311v1761h385v-115h-229v-1532h229v-114h-385z" />
<glyph unicode="\" horiz-adv-x="710" d="M37 1454h143l508 -1782h-143z" />
<glyph unicode="]" horiz-adv-x="645" d="M72 -197h229v1532h-229v115h385v-1761h-385v114z" />
<glyph unicode="^" d="M117 575l313 797h176l314 -797h-177l-122 332l-99 275h-8l-98 -275l-123 -332h-176z" />
<glyph unicode="_" horiz-adv-x="1024" d="M25 -137h974v-129h-974v129z" />
<glyph unicode="`" horiz-adv-x="1118" d="M237 1489l144 137l297 -350l-105 -102z" />
<glyph unicode="a" horiz-adv-x="1046" d="M100 266q0 162 143.5 249t456.5 122q-4 221 -192 221q-127 0 -289 -102l-78 139q205 131 404 131q182 0 272 -109.5t90 -314.5v-602h-170l-16 115h-6q-166 -139 -320 -140q-131 0 -213 79t-82 212zM301 281q0 -70 43 -106t115 -36q63 0 118.5 29t122.5 90v248 q-217 -27 -308 -82t-91 -143z" />
<glyph unicode="b" horiz-adv-x="1144" d="M158 0v1452h207v-385l-7 -172q70 59 148 95t153 36q188 0 292 -137t104 -371q0 -166 -59.5 -289t-158 -188.5t-212.5 -65.5q-70 0 -141.5 34t-137.5 95h-6l-18 -104h-164zM365 240q55 -47 111 -70t108 -23q114 0 186 97.5t72 269.5q0 340 -238 340q-113 0 -239 -123v-491 z" />
<glyph unicode="c" horiz-adv-x="940" d="M88 500q0 162 67.5 280.5t180.5 182t246 63.5q164 0 292 -115l-102 -135q-45 39 -88 59.5t-92 20.5q-129 0 -210 -98.5t-81 -257.5q0 -160 79 -257.5t206 -97.5q113 0 219 93l86 -138q-68 -61 -153 -93t-173 -32q-135 0 -243.5 62.5t-171 181.5t-62.5 281z" />
<glyph unicode="d" horiz-adv-x="1146" d="M92 500q0 158 59.5 277.5t158 184t210.5 64.5q80 0 141.5 -27.5t129.5 -85.5l-9 166v373h207v-1452h-170l-16 113h-6q-61 -61 -137 -99.5t-156 -38.5q-189 0 -300.5 139.5t-111.5 385.5zM305 502q0 -170 64.5 -262.5t183.5 -92.5q63 0 118.5 30t110.5 93v492 q-102 92 -221 92q-72 0 -130 -43t-92 -123t-34 -186z" />
<glyph unicode="e" horiz-adv-x="1028" d="M88 500q0 158 64.5 277.5t169 184t223.5 64.5q195 0 301 -128t106 -345q0 -58 -8 -107h-661q14 -152 103 -230.5t216 -78.5q121 0 240 76l71 -131q-160 -106 -338 -107q-137 0 -247.5 63.5t-175 182.5t-64.5 279zM287 590h485q0 131 -57.5 202.5t-165.5 71.5 q-94 0 -168 -69.5t-94 -204.5z" />
<glyph unicode="f" horiz-adv-x="626" d="M57 836v155l136 10v127q0 162 77.5 255.5t237.5 93.5q90 0 176 -35l-41 -156q-55 25 -111 25q-133 -1 -133 -181v-129h203v-165h-203v-836h-206v836h-136z" />
<glyph unicode="g" horiz-adv-x="1050" d="M86 -186q0 63 38 119.5t107 99.5v8q-90 57 -90 166q0 55 32 104t79 82v8q-55 43 -93 113t-38 154q0 109 52 190.5t141 124.5t194 43q78 0 145 -25h355v-155h-193q31 -33 49.5 -81t18.5 -103q0 -160 -106.5 -252.5t-268.5 -92.5q-74 0 -141 31q-27 -25 -41.5 -48.5 t-14.5 -57.5q0 -47 39 -73t129 -26h187q180 0 269 -59t89 -184q0 -96 -64.5 -176t-183.5 -127.5t-274 -47.5q-187 0 -301.5 69t-114.5 196zM262 -156q0 -74 72 -115.5t198 -41.5q84 0 151 24.5t103.5 66.5t36.5 89q0 61 -46 85.5t-140 24.5h-154q-76 0 -133 15 q-88 -66 -88 -148zM317 668q0 -98 54.5 -157.5t136.5 -59.5t136 59t54 158q0 98 -54 155.5t-136 57.5t-136.5 -57.5t-54.5 -155.5z" />
<glyph unicode="h" horiz-adv-x="1130" d="M158 0v1452h207v-385l-9 -199q78 74 155 116t171 42q307 0 307 -395v-631h-207v604q0 129 -40 186.5t-130 57.5q-68 0 -121 -32t-126 -105v-711h-207z" />
<glyph unicode="i" horiz-adv-x="522" d="M135 1315q0 53 36 88t91 35t91 -35t36 -88q0 -55 -36 -90t-91 -35t-91 35t-36 90zM158 0v1001h207v-1001h-207z" />
<glyph unicode="j" horiz-adv-x="524" d="M-82 -406l39 156q53 -16 90 -16q68 0 93.5 46t25.5 140l2 1081h207l-2 -1079q0 -354 -299 -354q-88 0 -156 26zM137 1315q0 53 36 88t91 35t91 -35t36 -88q0 -55 -36 -90t-91 -35t-91 35t-36 90z" />
<glyph unicode="k" horiz-adv-x="1044" d="M158 0v1452h202v-940h7l395 489h227l-340 -405l379 -596h-225l-273 455l-170 -197v-258h-202z" />
<glyph unicode="l" horiz-adv-x="540" d="M158 233v1219h207v-1231q0 -39 14 -57.5t35 -18.5q18 0 37 5l26 -156q-47 -18 -112 -19q-109 0 -158 65.5t-49 192.5z" />
<glyph unicode="m" horiz-adv-x="1714" d="M158 0v1001h170l16 -139h6q74 76 148.5 120t160.5 44q207 0 277 -184q84 90 161 137t165 47q154 0 230.5 -101.5t76.5 -293.5v-631h-207v604q0 129 -40 186.5t-128 57.5q-102 0 -227 -137v-711h-207v604q0 129 -40 186.5t-128 57.5q-102 0 -227 -137v-711h-207z" />
<glyph unicode="n" horiz-adv-x="1134" d="M158 0v1001h170l16 -139h6q80 78 159 121t173 43q307 0 307 -395v-631h-207v604q0 129 -40 186.5t-130 57.5q-68 0 -121 -32t-126 -105v-711h-207z" />
<glyph unicode="o" horiz-adv-x="1118" d="M88 500q0 162 64.5 280.5t172 182t234.5 63.5t234.5 -63.5t172 -182t64.5 -280.5q0 -160 -64.5 -279t-173 -182.5t-233.5 -63.5t-233.5 63.5t-173 182.5t-64.5 279zM301 500q0 -160 69.5 -257.5t188.5 -97.5t188.5 97.5t69.5 257.5t-70.5 258t-187.5 98t-187.5 -98.5 t-70.5 -257.5z" />
<glyph unicode="p" horiz-adv-x="1146" d="M158 -408v1409h170l16 -110h6q162 135 309 135q188 0 292 -137t104 -373q0 -166 -59.5 -288t-158 -187.5t-212.5 -65.5q-131 0 -267 113l7 -170v-326h-207zM365 240q109 -92 219 -93q114 0 186 97.5t72 269.5q0 340 -238 340q-111 0 -239 -123v-491z" />
<glyph unicode="q" horiz-adv-x="1146" d="M92 500q0 158 59.5 277.5t158 184t210.5 64.5q84 0 148.5 -29.5t132.5 -91.5h6l18 96h164v-1409h-207v340l9 174q-61 -59 -135 -95t-152 -36q-188 0 -300 139.5t-112 385.5zM305 502q0 -170 64.5 -262.5t183.5 -92.5q63 0 118.5 30t110.5 93v492q-102 92 -221 92 q-72 0 -130 -43t-92 -123t-34 -186z" />
<glyph unicode="r" horiz-adv-x="741" d="M158 0v1001h170l16 -180h6q53 96 128 150.5t157 54.5q68 0 110 -20l-36 -181q-55 16 -101 17q-68 0 -133 -52.5t-110 -164.5v-625h-207z" />
<glyph unicode="s" horiz-adv-x="872" d="M53 115l99 133q72 -55 139 -85t145 -30q86 0 131 38t45 97q0 61 -55 97t-166 77q-133 49 -211 114t-78 177q0 129 96.5 211t260.5 82q176 0 323 -117l-96 -129q-57 43 -110.5 65.5t-112.5 22.5q-80 0 -122 -34.5t-42 -90.5q0 -41 28.5 -68.5t66.5 -44t120 -46.5 q90 -33 150.5 -67t102.5 -91t42 -145q0 -86 -44 -155t-130 -110t-205 -41q-100 0 -200.5 39t-176.5 101z" />
<glyph unicode="t" horiz-adv-x="718" d="M45 836v155l156 10l24 277h172v-277h262v-165h-262v-510q0 -92 35 -138.5t113 -46.5q47 0 108 25l37 -154q-111 -37 -196 -37q-304 1 -304 351v510h-145z" />
<glyph unicode="u" horiz-adv-x="1128" d="M145 371v630h207v-604q0 -129 40 -186t130 -57q70 0 123 34.5t119 116.5v696h207v-1001h-170l-17 152h-6q-74 -86 -150.5 -131.5t-174.5 -45.5q-308 1 -308 396z" />
<glyph unicode="v" horiz-adv-x="989" d="M25 1001h211l172 -540l88 -299h8l88 299l172 540h201l-347 -1001h-239z" />
<glyph unicode="w" horiz-adv-x="1505" d="M49 1001h209l133 -544l41 -205l14 -80h9q39 182 65 285l142 544h192l143 -544l52 -211q4 -25 16 -74h8q23 109 29 143l28 142l132 544h194l-260 -1001h-248l-129 498q-23 90 -45 202l-18 88h-8q-39 -199 -64 -292l-125 -496h-240z" />
<glyph unicode="x" horiz-adv-x="954" d="M29 0l321 522l-299 479h223l121 -202l94 -168h9l84 168l106 202h215l-299 -501l322 -500h-224l-133 213q-61 111 -104 178h-8l-95 -178l-118 -213h-215z" />
<glyph unicode="y" horiz-adv-x="989" d="M25 1001h211l186 -518l61 -186l31 -96h8q23 74 35 127l45 155l162 518h201l-369 -1062q-63 -176 -153.5 -267.5t-239.5 -91.5q-68 1 -125 21l39 161q47 -14 73 -14q147 0 211 191l21 67z" />
<glyph unicode="z" horiz-adv-x="890" d="M68 0v111l495 725h-440v165h700v-110l-495 -725h512v-166h-772z" />
<glyph unicode="{" horiz-adv-x="645" d="M68 506v127q94 2 135 46t41 109q0 66 -8 185q-10 102 -11 198q0 156 57.5 217.5t188.5 61.5h102v-115h-49q-76 0 -103.5 -39t-27.5 -135q0 -57 4 -168q6 -92 6 -192q0 -104 -29.5 -156.5t-101.5 -71.5v-8q70 -18 100.5 -71.5t30.5 -155.5q0 -100 -6 -191q-4 -115 -4 -170 q0 -96 28 -135t103 -39h49v-114h-102q-131 0 -188.5 61.5t-57.5 216.5q0 96 11 199q8 119 8 182q0 68 -41 112t-135 46z" />
<glyph unicode="|" horiz-adv-x="509" d="M184 -512v2048h142v-2048h-142z" />
<glyph unicode="}" horiz-adv-x="645" d="M72 -197h49q76 0 103.5 38t27.5 136q0 55 -4 170q-6 90 -6 191q0 102 30.5 155.5t100.5 71.5v8q-70 18 -100.5 70.5t-30.5 157.5q0 100 6 192q4 111 4 168q0 98 -27.5 136t-103.5 38h-49v115h102q131 0 188.5 -61.5t57.5 -217.5q0 -96 -10 -198q-8 -119 -9 -185 q0 -66 41 -109.5t136 -45.5v-127q-94 -2 -135.5 -46t-41.5 -112q0 -63 9 -182q10 -102 10 -199q0 -156 -57.5 -217t-188.5 -61h-102v114z" />
<glyph unicode="~" d="M70 643q59 98 127.5 145.5t142.5 47.5q59 0 105.5 -24t107.5 -71q47 -37 80 -55t67 -18q88 0 154 123l113 -84q-59 -98 -129 -144.5t-142 -46.5q-59 0 -105 23.5t-108 70.5q-47 37 -79.5 55.5t-67.5 18.5q-88 0 -154 -123z" />
<glyph unicode="&#xa1;" horiz-adv-x="622" d="M172 881q0 63 40 104t99 41t99.5 -41t40.5 -104t-40 -105.5t-100 -42.5q-59 0 -99 42t-40 106zM207 -371l6 215l29 731h139l29 -731l6 -215h-209z" />
<glyph unicode="&#xa2;" d="M125 633q0 207 116.5 337t303.5 158v211h123v-204q154 -10 264 -119l-98 -129q-78 70 -166 78v-662q98 8 194 88l88 -131q-59 -53 -132 -86t-150 -41v-205h-123v207q-193 25 -306.5 155t-113.5 343zM328 633q0 -123 57 -208t160 -112v637q-102 -27 -159.5 -111.5 t-57.5 -205.5z" />
<glyph unicode="&#xa3;" d="M106 0v127q102 53 160 146.5t58 205.5q0 41 -11 96h-204v127l137 9h30q-25 80 -37 129t-12 100q0 178 109.5 283.5t288.5 105.5q197 0 327 -158l-116 -114q-41 49 -88.5 75.5t-106.5 26.5q-100 0 -156.5 -61.5t-56.5 -165.5q0 -49 10.5 -95t30.5 -126h319v-136h-288 q8 -61 8 -98q0 -94 -27.5 -161.5t-89.5 -131.5v-8h563v-176h-848z" />
<glyph unicode="&#xa4;" d="M51 309l129 131q-74 100 -74 234q0 137 72 235l-127 133l107 109l139 -141q100 68 221 67q121 0 221 -67l140 141l108 -109l-131 -133q74 -96 74 -235q0 -129 -74 -234l131 -131l-108 -110l-140 143q-47 -33 -104 -51.5t-117 -18.5q-121 0 -221 70l-139 -143zM295 674 q0 -111 64.5 -181.5t158.5 -70.5t158.5 70.5t64.5 181.5q0 113 -64.5 183.5t-158.5 70.5t-158.5 -71t-64.5 -183z" />
<glyph unicode="&#xa5;" d="M41 1305h215l143 -328l117 -275h8q76 178 66 154q12 25 24.5 55.5t28.5 65.5l143 328h209l-325 -639h278v-111h-327v-127h327v-111h-327v-317h-207v317h-326v111h326v127h-326v111h277z" />
<glyph unicode="&#xa6;" horiz-adv-x="509" d="M184 25v948v22h142v-923v-47h-142z" />
<glyph unicode="&#xa7;" d="M88 692q0 82 46 149.5t124 114.5q-61 72 -61 168q0 121 86 201t239 80q96 0 181 -34t151 -89l-98 -131q-111 96 -224 96q-74 0 -110.5 -31.5t-36.5 -82.5q0 -55 52 -93.5t163 -87.5q109 -47 178.5 -89t119.5 -111.5t50 -169.5q0 -90 -44 -153.5t-128 -115.5 q57 -72 58 -163q0 -127 -95.5 -210t-253.5 -83q-111 0 -207 40t-159 113l123 111q106 -106 243 -107q74 0 117 36t43 89q0 61 -53 99t-166 88q-109 49 -175.5 89t-114.5 108.5t-48 168.5zM266 707q0 -56 33 -97t82 -67.5t135 -65.5q109 -49 148 -71q55 29 80.5 65.5 t25.5 93.5q0 59 -35 101.5t-87 71t-140 65.5q-90 41 -133 63q-109 -59 -109 -159z" />
<glyph unicode="&#xa8;" horiz-adv-x="1118" d="M240 1307q0 49 31.5 81.5t82.5 32.5q49 0 82 -32.5t33 -81.5q0 -47 -33 -81t-82 -34t-81.5 32.5t-32.5 82.5zM649 1307q0 49 33 81.5t82 32.5q51 0 82.5 -32.5t31.5 -81.5t-32.5 -82t-81.5 -33t-82 34t-33 81z" />
<glyph unicode="&#xa9;" horiz-adv-x="1527" d="M98 664q0 203 90.5 356.5t243 236t332.5 82.5t332.5 -82.5t243 -236.5t90.5 -356q0 -203 -90.5 -358.5t-243 -240.5t-332.5 -85t-332.5 85t-243 240.5t-90.5 358.5zM207 664q0 -172 74.5 -306.5t201.5 -208t281 -73.5t280.5 73.5t201.5 208t75 306.5q0 170 -75 302 t-201.5 204.5t-280.5 72.5t-281 -72.5t-201.5 -204.5t-74.5 -302zM403 662q0 117 53.5 204.5t141.5 136t188 48.5q82 0 143.5 -31t117.5 -86l-82 -94q-43 41 -81 60.5t-87 19.5q-106 0 -170 -72t-64 -186q0 -125 61.5 -199t163.5 -74q57 0 102.5 21.5t94.5 62.5l72 -102 q-66 -55 -129.5 -84t-145.5 -29q-106 0 -192 49t-136.5 140.5t-50.5 214.5z" />
<glyph unicode="&#xaa;" horiz-adv-x="714" d="M72 977q0 106 95 164.5t304 79.5q-2 63 -28.5 98t-90.5 35q-86 0 -200 -68l-56 103q143 88 281 88q123 0 184.5 -72t61.5 -211v-397h-121l-17 73h-8q-98 -90 -203 -90q-92 0 -147 55.5t-55 141.5zM219 989q0 -90 105 -90q71 0 147 74v155q-135 -14 -193.5 -50t-58.5 -89z " />
<glyph unicode="&#xab;" horiz-adv-x="909" d="M94 440v152l279 311l84 -69l-238 -318l238 -319l-84 -68zM436 440v152l279 311l84 -69l-238 -318l238 -319l-84 -68z" />
<glyph unicode="&#xac;" d="M70 600v152h897v-545h-160v393h-737z" />
<glyph unicode="&#xad;" horiz-adv-x="649" d="M86 438v154h479v-154h-479z" />
<glyph unicode="&#xae;" horiz-adv-x="890" d="M53 1055q0 117 52.5 210t142.5 145t196 52t196.5 -52t143 -145.5t52.5 -209.5q0 -117 -52.5 -210t-142.5 -144.5t-197 -51.5q-106 0 -196 51.5t-142.5 144.5t-52.5 210zM143 1055q0 -143 85 -233.5t216 -90.5t216 90t85 234q0 143 -85 234t-216 91t-216 -91t-85 -234z M291 854v412h164q72 0 116.5 -33t44.5 -100q0 -37 -20.5 -68t-54.5 -45l92 -166h-103l-69 137h-76v-137h-94zM385 1063h49q39 0 60.5 16.5t21.5 46.5q0 66 -78 66h-53v-129z" />
<glyph unicode="&#xaf;" horiz-adv-x="1118" d="M278 1225v139h562v-139h-562z" />
<glyph unicode="&#xb0;" horiz-adv-x="698" d="M82 1130q0 121 78 197t190 76q113 0 190.5 -76t77.5 -197q0 -119 -77.5 -194.5t-190.5 -75.5q-112 0 -190 76t-78 194zM201 1130q0 -72 42 -116.5t107 -44.5q66 0 108 45t42 116q0 72 -42 118t-108 46t-107.5 -46t-41.5 -118z" />
<glyph unicode="&#xb1;" d="M70 0v152h897v-152h-897zM70 616v152h368v377h160v-377h369v-152h-369v-337h-160v337h-368z" />
<glyph unicode="&#xb4;" horiz-adv-x="1118" d="M440 1276l297 350l144 -137l-336 -315z" />
<glyph unicode="&#xb6;" horiz-adv-x="1191" d="M82 899q0 231 136 336.5t366 105.5h90v-895h-72q-233 0 -376.5 115t-143.5 338zM786 -164v1505h209v-1505h-209z" />
<glyph unicode="&#xb7;" horiz-adv-x="540" d="M131 658q0 63 40 105t99 42t99.5 -42t40.5 -105t-40 -104.5t-100 -41.5q-59 0 -99 41t-40 105z" />
<glyph unicode="&#xb8;" horiz-adv-x="1118" d="M354 -377q123 8 171 30.5t48 67.5q0 39 -35.5 60.5t-121.5 34.5l92 190h129l-60 -135q76 -18 114 -52t38 -95q0 -178 -356 -195z" />
<glyph unicode="&#xba;" horiz-adv-x="751" d="M57 1128q0 106 43 185.5t116 121.5t159 42t158.5 -42t115.5 -121t43 -186q0 -106 -43 -185t-115.5 -121t-158.5 -42t-159 42t-116 121t-43 185zM213 1128q0 -102 43 -163.5t119 -61.5t119 61.5t43 163.5t-42 164t-120 62q-76 0 -119 -61.5t-43 -164.5z" />
<glyph unicode="&#xbb;" horiz-adv-x="909" d="M111 197l237 319l-237 318l84 69l278 -311v-152l-278 -311zM453 197l237 319l-237 318l84 69l278 -311v-152l-278 -311z" />
<glyph unicode="&#xbc;" horiz-adv-x="1656" d="M152 1198v100q70 12 114.5 31t91.5 53h127v-798h-157v614h-176zM393 -25l735 1391h132l-736 -1391h-131zM981 203v80l322 516h184v-488h119v-108h-119v-203h-141v203h-365zM1137 311h209v127l10 228h-8l-97 -164z" />
<glyph unicode="&#xbd;" horiz-adv-x="1677" d="M152 1198v100q70 12 114.5 31t91.5 53h127v-798h-157v614h-176zM369 -25l735 1391h131l-735 -1391h-131zM993 666q51 74 124 115.5t155 41.5q125 0 199.5 -68.5t74.5 -193.5q0 -68 -33.5 -134.5t-87 -128.5t-151.5 -165h309v-133h-561v88q203 178 287 273.5t84 175.5 q0 72 -39 113.5t-105 41.5q-86 0 -164 -110z" />
<glyph unicode="&#xbe;" horiz-adv-x="1677" d="M68 717l100 78q78 -113 192 -113q63 0 105.5 35t42.5 94q0 63 -59.5 97t-172.5 34v96q94 0 147.5 36t53.5 95q0 53 -35.5 84t-95.5 31q-80 0 -153 -92l-93 82q57 66 123 99.5t148 33.5q111 0 186.5 -59.5t75.5 -157.5q0 -127 -133 -193q72 -20 118 -71.5t46 -124.5 q0 -109 -85 -175.5t-206 -66.5q-98 0 -177 42t-128 116zM444 -25l736 1391h131l-736 -1391h-131zM1001 203v80l322 516h184v-488h119v-108h-119v-203h-141v203h-365zM1157 311h209v127l10 228h-8l-96 -164z" />
<glyph unicode="&#xbf;" horiz-adv-x="892" d="M94 -61q0 84 38 150.5t112 152.5q74 92 109.5 153.5t35.5 143.5q0 25 -2 36h182q4 -41 4 -55q0 -96 -40.5 -171t-116.5 -165q-59 -72 -90 -123t-31 -108q0 -80 47 -129t133 -49q121 0 221 110l117 -106q-156 -174 -362 -174q-162 0 -259.5 88t-97.5 246zM336 881 q0 63 40 104t99 41t99 -41t40 -104t-39.5 -105.5t-99.5 -42.5q-59 0 -99 42t-40 106z" />
<glyph unicode="&#xc0;" horiz-adv-x="1130" d="M0 0l444 1341h242l444 -1341h-221l-114 383h-467l-115 -383h-213zM262 1655l115 137l307 -270l-92 -105zM379 549h366l-53 180q-29 96 -64.5 223t-52.5 185q-2 16 -10 39h-8q-66 -252 -125 -447z" />
<glyph unicode="&#xc1;" horiz-adv-x="1130" d="M0 0l444 1341h242l444 -1341h-221l-114 383h-467l-115 -383h-213zM379 549h366l-53 180q-29 96 -64.5 223t-52.5 185q-2 16 -10 39h-8q-66 -252 -125 -447zM438 1522l307 270l115 -137l-330 -238z" />
<glyph unicode="&#xc2;" horiz-adv-x="1130" d="M0 0l444 1341h242l444 -1341h-221l-114 383h-467l-115 -383h-213zM246 1485l204 229h222l204 -229l-90 -62l-221 185h-8l-221 -185zM379 549h366l-53 180q-29 96 -64.5 223t-52.5 185q-2 16 -10 39h-8q-66 -252 -125 -447z" />
<glyph unicode="&#xc3;" horiz-adv-x="1130" d="M0 0l444 1341h242l444 -1341h-221l-114 383h-467l-115 -383h-213zM186 1464q6 127 65.5 196t157.5 69q57 0 96.5 -20.5t94.5 -61.5q39 -31 59.5 -43.5t46.5 -12.5q78 0 93 125l137 -10q-6 -127 -65.5 -195.5t-157.5 -68.5q-58 0 -97 20.5t-94 61.5q-39 31 -59.5 43 t-46.5 12q-37 0 -61.5 -31.5t-31.5 -93.5zM379 549h366l-53 180q-29 96 -64.5 223t-52.5 185q-2 16 -10 39h-8q-66 -252 -125 -447z" />
<glyph unicode="&#xc4;" horiz-adv-x="1130" d="M0 0l444 1341h242l444 -1341h-221l-114 383h-467l-115 -383h-213zM233 1569q0 49 32 80.5t81 31.5t81 -31.5t32 -80.5t-32 -81t-81 -32t-81 32t-32 81zM379 549h366l-53 180q-29 96 -64.5 223t-52.5 185q-2 16 -10 39h-8q-66 -252 -125 -447zM663 1569q0 49 32 80.5 t81 31.5t81 -31.5t32 -80.5t-32 -81t-81 -32t-81 32t-32 81z" />
<glyph unicode="&#xc5;" horiz-adv-x="1130" d="M0 0l444 1341h242l444 -1341h-221l-114 383h-467l-115 -383h-213zM352 1620q0 86 58.5 138t150.5 52t150.5 -52t58.5 -138t-58.5 -138t-150.5 -52t-150.5 52t-58.5 138zM379 549h366l-53 180q-29 96 -64.5 223t-52.5 185q-2 16 -10 39h-8q-66 -252 -125 -447zM461 1620 q0 -47 28.5 -75.5t71.5 -28.5q41 0 69.5 28.5t28.5 75.5t-28.5 75.5t-69.5 28.5q-43 0 -71.5 -28.5t-28.5 -75.5z" />
<glyph unicode="&#xc6;" horiz-adv-x="1697" d="M4 0l684 1341h887v-176h-553v-377h463v-176h-463v-436h573v-176h-782v367h-405l-185 -367h-219zM489 532h324v648h-8q-41 -88 -51 -107q-74 -160 -152 -315z" />
<glyph unicode="&#xc7;" horiz-adv-x="1175" d="M102 668q0 213 80 370.5t218.5 242.5t308.5 85q117 0 214 -47t164 -121l-112 -135q-117 121 -262 121q-117 0 -206 -62.5t-139.5 -177.5t-50.5 -270q0 -240 105.5 -378t284.5 -138q168 0 297 143l112 -131q-166 -195 -418 -195q-170 0 -305 82t-213 239t-78 372z" />
<glyph unicode="&#xc8;" horiz-adv-x="1091" d="M176 0v1341h793v-176h-584v-377h494v-176h-494v-436h604v-176h-813zM287 1655l115 137l307 -270l-92 -105z" />
<glyph unicode="&#xc9;" horiz-adv-x="1091" d="M176 0v1341h793v-176h-584v-377h494v-176h-494v-436h604v-176h-813zM463 1522l307 270l115 -137l-330 -238z" />
<glyph unicode="&#xca;" horiz-adv-x="1091" d="M176 0v1341h793v-176h-584v-377h494v-176h-494v-436h604v-176h-813zM271 1485l204 229h222l204 -229l-90 -62l-221 185h-8l-221 -185z" />
<glyph unicode="&#xcb;" horiz-adv-x="1091" d="M176 0v1341h793v-176h-584v-377h494v-176h-494v-436h604v-176h-813zM258 1569q0 49 32 80.5t81 31.5t81 -31.5t32 -80.5t-32 -81t-81 -32t-81 32t-32 81zM688 1569q0 49 32 80.5t81 31.5t81 -31.5t32 -80.5t-32 -81t-81 -32t-81 32t-32 81z" />
<glyph unicode="&#xcc;" horiz-adv-x="561" d="M-18 1655l115 137l307 -270l-92 -105zM176 0v1341h209v-1341h-209z" />
<glyph unicode="&#xcd;" horiz-adv-x="561" d="M158 1522l307 270l115 -137l-330 -238zM176 0v1341h209v-1341h-209z" />
<glyph unicode="&#xce;" horiz-adv-x="561" d="M-34 1485l204 229h222l204 -229l-90 -62l-221 185h-8l-221 -185zM176 0v1341h209v-1341h-209z" />
<glyph unicode="&#xcf;" horiz-adv-x="561" d="M-47 1569q0 49 32 80.5t81 31.5t81 -31.5t32 -80.5t-32 -81t-81 -32t-81 32t-32 81zM176 0v1341h209v-1341h-209zM383 1569q0 49 32 80.5t81 31.5t81 -31.5t32 -80.5t-32 -81t-81 -32t-81 32t-32 81z" />
<glyph unicode="&#xd0;" horiz-adv-x="1318" d="M63 645v103l160 8v585h348q312 0 479 -170t167 -495q0 -326 -166 -501t-469 -175h-359v645h-160zM432 170h125q217 0 330.5 128t113.5 378q0 248 -112.5 371.5t-331.5 123.5h-125v-415h291v-111h-291v-475z" />
<glyph unicode="&#xd1;" horiz-adv-x="1335" d="M176 0v1341h215l447 -792l141 -283h8q-4 66 -8 92q-2 23 -10 137.5t-8 215.5v630h198v-1341h-215l-446 795l-142 280h-8l8 -102q2 -25 10.5 -133.5t8.5 -202.5v-637h-199zM299 1464q6 127 65.5 196t157.5 69q57 0 96.5 -20.5t94.5 -61.5q39 -31 59.5 -43.5t46.5 -12.5 q78 0 93 125l137 -10q-6 -127 -65.5 -195.5t-157.5 -68.5q-58 0 -97 20.5t-94 61.5q-39 31 -59.5 43t-46.5 12q-37 0 -61.5 -31.5t-31.5 -93.5z" />
<glyph unicode="&#xd2;" horiz-adv-x="1372" d="M102 676q0 213 74 368.5t206 238.5t304 83t304 -83t206 -238.5t74 -368.5t-74 -372t-206 -244t-304 -85t-304 85t-206 244t-74 372zM317 676q0 -156 45.5 -273.5t129 -181t194.5 -63.5t195 63.5t129 181t45 273.5q0 236 -100.5 372t-268.5 136t-268.5 -136.5 t-100.5 -371.5zM387 1655l115 137l307 -270l-92 -105z" />
<glyph unicode="&#xd3;" horiz-adv-x="1372" d="M102 676q0 213 74 368.5t206 238.5t304 83t304 -83t206 -238.5t74 -368.5t-74 -372t-206 -244t-304 -85t-304 85t-206 244t-74 372zM317 676q0 -156 45.5 -273.5t129 -181t194.5 -63.5t195 63.5t129 181t45 273.5q0 236 -100.5 372t-268.5 136t-268.5 -136.5 t-100.5 -371.5zM563 1522l307 270l115 -137l-330 -238z" />
<glyph unicode="&#xd4;" horiz-adv-x="1372" d="M102 676q0 213 74 368.5t206 238.5t304 83t304 -83t206 -238.5t74 -368.5t-74 -372t-206 -244t-304 -85t-304 85t-206 244t-74 372zM317 676q0 -156 45.5 -273.5t129 -181t194.5 -63.5t195 63.5t129 181t45 273.5q0 236 -100.5 372t-268.5 136t-268.5 -136.5 t-100.5 -371.5zM371 1485l204 229h222l204 -229l-90 -62l-221 185h-8l-221 -185z" />
<glyph unicode="&#xd5;" horiz-adv-x="1372" d="M102 676q0 213 74 368.5t206 238.5t304 83t304 -83t206 -238.5t74 -368.5t-74 -372t-206 -244t-304 -85t-304 85t-206 244t-74 372zM311 1464q6 127 65.5 196t157.5 69q57 0 96.5 -20.5t94.5 -61.5q39 -31 59.5 -43.5t46.5 -12.5q78 0 93 125l137 -10 q-6 -127 -65.5 -195.5t-157.5 -68.5q-58 0 -97 20.5t-94 61.5q-39 31 -59.5 43t-46.5 12q-37 0 -61.5 -31.5t-31.5 -93.5zM317 676q0 -156 45.5 -273.5t129 -181t194.5 -63.5t195 63.5t129 181t45 273.5q0 236 -100.5 372t-268.5 136t-268.5 -136.5t-100.5 -371.5z" />
<glyph unicode="&#xd6;" horiz-adv-x="1372" d="M102 676q0 213 74 368.5t206 238.5t304 83t304 -83t206 -238.5t74 -368.5t-74 -372t-206 -244t-304 -85t-304 85t-206 244t-74 372zM317 676q0 -156 45.5 -273.5t129 -181t194.5 -63.5t195 63.5t129 181t45 273.5q0 236 -100.5 372t-268.5 136t-268.5 -136.5 t-100.5 -371.5zM358 1569q0 49 32 80.5t81 31.5t81 -31.5t32 -80.5t-32 -81t-81 -32t-81 32t-32 81zM788 1569q0 49 32 80.5t81 31.5t81 -31.5t32 -80.5t-32 -81t-81 -32t-81 32t-32 81z" />
<glyph unicode="&#xd7;" d="M102 360l310 316l-310 315l107 109l309 -318l309 318l109 -109l-309 -315l309 -316l-109 -110l-309 317l-309 -317z" />
<glyph unicode="&#xd8;" horiz-adv-x="1372" d="M96 18l144 185q-133 188 -134 473q0 213 74 368.5t206 238.5t304 83q213 0 361 -123l129 166l112 -86l-145 -186q127 -178 127 -461q0 -213 -74 -372t-206 -244t-304 -85q-207 0 -352 121l-129 -164zM322 676q0 -170 55 -297l551 706q-94 98 -238 99q-168 0 -268 -136.5 t-100 -371.5zM459 254q96 -96 231 -96q111 0 195 63.5t129 181t45 273.5q0 161 -51 282z" />
<glyph unicode="&#xd9;" horiz-adv-x="1333" d="M170 573v768h209v-780q0 -217 76.5 -310t212.5 -93q295 0 295 403v780h200v-768q0 -313 -131 -455.5t-364 -142.5q-236 0 -367 142.5t-131 455.5zM367 1655l115 137l307 -270l-92 -105z" />
<glyph unicode="&#xda;" horiz-adv-x="1333" d="M170 573v768h209v-780q0 -217 76.5 -310t212.5 -93q295 0 295 403v780h200v-768q0 -313 -131 -455.5t-364 -142.5q-236 0 -367 142.5t-131 455.5zM543 1522l307 270l115 -137l-330 -238z" />
<glyph unicode="&#xdb;" horiz-adv-x="1333" d="M170 573v768h209v-780q0 -217 76.5 -310t212.5 -93q295 0 295 403v780h200v-768q0 -313 -131 -455.5t-364 -142.5q-236 0 -367 142.5t-131 455.5zM351 1485l204 229h222l204 -229l-90 -62l-221 185h-8l-221 -185z" />
<glyph unicode="&#xdc;" horiz-adv-x="1333" d="M170 573v768h209v-780q0 -217 76.5 -310t212.5 -93q295 0 295 403v780h200v-768q0 -313 -131 -455.5t-364 -142.5q-236 0 -367 142.5t-131 455.5zM338 1569q0 49 32 80.5t81 31.5t81 -31.5t32 -80.5t-32 -81t-81 -32t-81 32t-32 81zM768 1569q0 49 32 80.5t81 31.5 t81 -31.5t32 -80.5t-32 -81t-81 -32t-81 32t-32 81z" />
<glyph unicode="&#xdd;" horiz-adv-x="1003" d="M-6 1341h223l158 -358q84 -203 125 -293h8l49 111l78 182l158 358h217l-404 -833v-508h-209v508zM379 1522l307 270l115 -137l-330 -238z" />
<glyph unicode="&#xde;" horiz-adv-x="1214" d="M176 0v1341h209v-219h225q504 0 504 -405q0 -211 -138 -318.5t-366 -107.5h-225v-291h-209zM385 459h205q162 0 239.5 63.5t77.5 194.5q0 129 -76.5 183t-240.5 54h-205v-495z" />
<glyph unicode="&#xdf;" horiz-adv-x="1212" d="M158 0v1038q0 199 111.5 317t314.5 118q113 0 193.5 -42t122.5 -114t42 -156q0 -74 -26.5 -127t-77.5 -119q-37 -47 -55.5 -80.5t-18.5 -72.5q0 -51 37 -84t114 -74q76 -41 124 -75.5t82 -93t34 -146.5q0 -135 -92 -224.5t-250 -89.5q-154 1 -295 99l78 143 q104 -84 211 -84q72 0 114 42t42 104q0 66 -44.5 106.5t-132.5 85.5q-72 41 -113.5 70.5t-71.5 78t-30 117.5q0 59 21.5 104.5t64.5 102.5q43 55 63.5 97t20.5 98q0 74 -42 121t-117 47q-104 0 -162 -78t-58 -223v-1006h-204z" />
<glyph unicode="&#xe0;" horiz-adv-x="1046" d="M100 266q0 162 143.5 249t456.5 122q-4 221 -192 221q-127 0 -289 -102l-78 139q205 131 404 131q182 0 272 -109.5t90 -314.5v-602h-170l-16 115h-6q-166 -139 -320 -140q-131 0 -213 79t-82 212zM241 1489l144 137l297 -350l-105 -102zM301 281q0 -70 43 -106t115 -36 q63 0 118.5 29t122.5 90v248q-217 -27 -308 -82t-91 -143z" />
<glyph unicode="&#xe1;" horiz-adv-x="1046" d="M100 266q0 162 143.5 249t456.5 122q-4 221 -192 221q-127 0 -289 -102l-78 139q205 131 404 131q182 0 272 -109.5t90 -314.5v-602h-170l-16 115h-6q-166 -139 -320 -140q-131 0 -213 79t-82 212zM301 281q0 -70 43 -106t115 -36q63 0 118.5 29t122.5 90v248 q-217 -27 -308 -82t-91 -143zM444 1276l297 350l144 -137l-336 -315z" />
<glyph unicode="&#xe2;" horiz-adv-x="1046" d="M100 266q0 162 143.5 249t456.5 122q-4 221 -192 221q-127 0 -289 -102l-78 139q205 131 404 131q182 0 272 -109.5t90 -314.5v-602h-170l-16 115h-6q-166 -139 -320 -140q-131 0 -213 79t-82 212zM229 1237l230 281h208l230 -281l-84 -78l-246 219h-8l-246 -219z M301 281q0 -70 43 -106t115 -36q63 0 118.5 29t122.5 90v248q-217 -27 -308 -82t-91 -143z" />
<glyph unicode="&#xe3;" horiz-adv-x="1046" d="M100 266q0 162 143.5 249t456.5 122q-4 221 -192 221q-127 0 -289 -102l-78 139q205 131 404 131q182 0 272 -109.5t90 -314.5v-602h-170l-16 115h-6q-166 -139 -320 -140q-131 0 -213 79t-82 212zM198 1200q4 135 59.5 211t162.5 76q51 0 91 -24.5t85 -69.5 q39 -35 61.5 -50.5t48.5 -15.5q76 0 86 148l136 -9q-4 -135 -58.5 -210.5t-161.5 -75.5q-53 0 -91 23.5t-89 70.5q-35 33 -58.5 49t-47.5 16q-78 0 -88 -147zM301 281q0 -70 43 -106t115 -36q63 0 118.5 29t122.5 90v248q-217 -27 -308 -82t-91 -143z" />
<glyph unicode="&#xe4;" horiz-adv-x="1046" d="M100 266q0 162 143.5 249t456.5 122q-4 221 -192 221q-127 0 -289 -102l-78 139q205 131 404 131q182 0 272 -109.5t90 -314.5v-602h-170l-16 115h-6q-166 -139 -320 -140q-131 0 -213 79t-82 212zM244 1307q0 49 31.5 81.5t82.5 32.5q49 0 82 -32.5t33 -81.5 q0 -47 -33 -81t-82 -34t-81.5 32.5t-32.5 82.5zM301 281q0 -70 43 -106t115 -36q63 0 118.5 29t122.5 90v248q-217 -27 -308 -82t-91 -143zM653 1307q0 49 33 81.5t82 32.5q51 0 82.5 -32.5t31.5 -81.5t-32.5 -82t-81.5 -33t-82 34t-33 81z" />
<glyph unicode="&#xe5;" horiz-adv-x="1046" d="M100 266q0 162 143.5 249t456.5 122q-4 221 -192 221q-127 0 -289 -102l-78 139q205 131 404 131q182 0 272 -109.5t90 -314.5v-602h-170l-16 115h-6q-166 -139 -320 -140q-131 0 -213 79t-82 212zM301 281q0 -70 43 -106t115 -36q63 0 118.5 29t122.5 90v248 q-217 -27 -308 -82t-91 -143zM325 1346q0 90 63.5 147t174.5 57t174.5 -57t63.5 -147t-63.5 -147.5t-174.5 -57.5t-174.5 57t-63.5 148zM454 1346q0 -53 31 -86t78 -33t78 32.5t31 86.5q0 53 -31 85.5t-78 32.5t-78 -32.5t-31 -85.5z" />
<glyph unicode="&#xe6;" horiz-adv-x="1607" d="M113 264q0 162 142 251t450 124q-4 219 -191 219q-121 0 -283 -102l-77 139q205 131 387 131q102 0 174.5 -51t109.5 -144q61 92 142.5 143.5t177.5 51.5q184 0 285.5 -130t101.5 -347q0 -53 -8 -103h-629q8 -139 90 -222t201 -83q63 0 117.5 20.5t115.5 59.5l74 -139 q-160 -106 -334 -107q-203 0 -350 179q-205 -178 -401 -179q-132 0 -213.5 79t-81.5 210zM313 281q0 -70 43 -106t115 -36q66 0 137.5 36t130.5 97q-31 76 -34 187l-3 47q-207 -27 -298 -82t-91 -143zM895 580h457q0 137 -54.5 210.5t-158.5 73.5q-96 0 -163 -76.5 t-81 -207.5z" />
<glyph unicode="&#xe7;" horiz-adv-x="940" d="M88 500q0 162 67.5 280.5t180.5 182t246 63.5q164 0 292 -115l-102 -135q-45 39 -88 59.5t-92 20.5q-129 0 -210 -98.5t-81 -257.5q0 -160 79 -257.5t206 -97.5q113 0 219 93l86 -138q-113 -100 -266 -120l-47 -109q75 -18 113 -52t38 -95q0 -178 -356 -195l-19 94 q123 8 171 30.5t48 67.5q0 39 -35.5 60.5t-121.5 34.5l80 164q-182 25 -295 162t-113 358z" />
<glyph unicode="&#xe8;" horiz-adv-x="1028" d="M88 500q0 158 64.5 277.5t169 184t223.5 64.5q195 0 301 -128t106 -345q0 -58 -8 -107h-661q14 -152 103 -230.5t216 -78.5q121 0 240 76l71 -131q-160 -106 -338 -107q-137 0 -247.5 63.5t-175 182.5t-64.5 279zM231 1489l144 137l297 -350l-105 -102zM287 590h485 q0 131 -57.5 202.5t-165.5 71.5q-94 0 -168 -69.5t-94 -204.5z" />
<glyph unicode="&#xe9;" horiz-adv-x="1028" d="M88 500q0 158 64.5 277.5t169 184t223.5 64.5q195 0 301 -128t106 -345q0 -58 -8 -107h-661q14 -152 103 -230.5t216 -78.5q121 0 240 76l71 -131q-160 -106 -338 -107q-137 0 -247.5 63.5t-175 182.5t-64.5 279zM287 590h485q0 131 -57.5 202.5t-165.5 71.5 q-94 0 -168 -69.5t-94 -204.5zM434 1276l297 350l144 -137l-336 -315z" />
<glyph unicode="&#xea;" horiz-adv-x="1028" d="M88 500q0 158 64.5 277.5t169 184t223.5 64.5q195 0 301 -128t106 -345q0 -58 -8 -107h-661q14 -152 103 -230.5t216 -78.5q121 0 240 76l71 -131q-160 -106 -338 -107q-137 0 -247.5 63.5t-175 182.5t-64.5 279zM219 1237l230 281h208l230 -281l-84 -78l-246 219h-8 l-246 -219zM287 590h485q0 131 -57.5 202.5t-165.5 71.5q-94 0 -168 -69.5t-94 -204.5z" />
<glyph unicode="&#xeb;" horiz-adv-x="1028" d="M88 500q0 158 64.5 277.5t169 184t223.5 64.5q195 0 301 -128t106 -345q0 -58 -8 -107h-661q14 -152 103 -230.5t216 -78.5q121 0 240 76l71 -131q-160 -106 -338 -107q-137 0 -247.5 63.5t-175 182.5t-64.5 279zM234 1307q0 49 31.5 81.5t82.5 32.5q49 0 82 -32.5 t33 -81.5q0 -47 -33 -81t-82 -34t-81.5 32.5t-32.5 82.5zM287 590h485q0 131 -57.5 202.5t-165.5 71.5q-94 0 -168 -69.5t-94 -204.5zM643 1307q0 49 33 81.5t82 32.5q51 0 82.5 -32.5t31.5 -81.5t-32.5 -82t-81.5 -33t-82 34t-33 81z" />
<glyph unicode="&#xec;" horiz-adv-x="522" d="M-60 1489l144 137l297 -350l-105 -102zM158 0v1001h207v-1001h-207z" />
<glyph unicode="&#xed;" horiz-adv-x="522" d="M143 1276l297 350l144 -137l-336 -315zM158 0v1001h207v-1001h-207z" />
<glyph unicode="&#xee;" horiz-adv-x="522" d="M-72 1237l230 281h208l230 -281l-84 -78l-246 219h-8l-246 -219zM158 0v1001h207v-1001h-207z" />
<glyph unicode="&#xef;" horiz-adv-x="522" d="M-57 1307q0 49 31.5 81.5t82.5 32.5q49 0 82 -32.5t33 -81.5q0 -47 -33 -81t-82 -34t-81.5 32.5t-32.5 82.5zM158 0v1001h207v-1001h-207zM352 1307q0 49 33 81.5t82 32.5q51 0 82.5 -32.5t31.5 -81.5t-32.5 -82t-81.5 -33t-82 34t-33 81z" />
<glyph unicode="&#xf0;" horiz-adv-x="1124" d="M102 459q0 137 56.5 242.5t152 162t211.5 56.5q76 0 143.5 -30t114.5 -89q-55 211 -205 356l-290 -147l-58 98l254 129q-82 61 -215 135l92 129q164 -84 283 -182l291 149l57 -100l-258 -131q277 -283 277 -705q0 -164 -56.5 -289.5t-159 -196.5t-239.5 -71 q-121 0 -223.5 59.5t-165 169t-62.5 255.5zM295 459q0 -94 36 -165t96 -110t132 -39q121 0 186.5 100.5t65.5 276.5q0 39 -4 109q-55 74 -116.5 102.5t-131.5 28.5q-123 0 -193.5 -83t-70.5 -220z" />
<glyph unicode="&#xf1;" horiz-adv-x="1134" d="M158 0v1001h170l16 -139h6q80 78 159 121t173 43q307 0 307 -395v-631h-207v604q0 129 -40 186.5t-130 57.5q-68 0 -121 -32t-126 -105v-711h-207zM247 1200q4 135 59.5 211t162.5 76q51 0 91 -24.5t85 -69.5q39 -35 61.5 -50.5t48.5 -15.5q76 0 86 148l136 -9 q-4 -135 -58.5 -210.5t-161.5 -75.5q-53 0 -91 23.5t-89 70.5q-35 33 -58.5 49t-47.5 16q-78 0 -88 -147z" />
<glyph unicode="&#xf2;" horiz-adv-x="1118" d="M88 500q0 162 64.5 280.5t172 182t234.5 63.5t234.5 -63.5t172 -182t64.5 -280.5q0 -160 -64.5 -279t-173 -182.5t-233.5 -63.5t-233.5 63.5t-173 182.5t-64.5 279zM237 1489l144 137l297 -350l-105 -102zM301 500q0 -160 69.5 -257.5t188.5 -97.5t188.5 97.5t69.5 257.5 t-70.5 258t-187.5 98t-187.5 -98.5t-70.5 -257.5z" />
<glyph unicode="&#xf3;" horiz-adv-x="1118" d="M88 500q0 162 64.5 280.5t172 182t234.5 63.5t234.5 -63.5t172 -182t64.5 -280.5q0 -160 -64.5 -279t-173 -182.5t-233.5 -63.5t-233.5 63.5t-173 182.5t-64.5 279zM301 500q0 -160 69.5 -257.5t188.5 -97.5t188.5 97.5t69.5 257.5t-70.5 258t-187.5 98t-187.5 -98.5 t-70.5 -257.5zM440 1276l297 350l144 -137l-336 -315z" />
<glyph unicode="&#xf4;" horiz-adv-x="1118" d="M88 500q0 162 64.5 280.5t172 182t234.5 63.5t234.5 -63.5t172 -182t64.5 -280.5q0 -160 -64.5 -279t-173 -182.5t-233.5 -63.5t-233.5 63.5t-173 182.5t-64.5 279zM225 1237l230 281h208l230 -281l-84 -78l-246 219h-8l-246 -219zM301 500q0 -160 69.5 -257.5 t188.5 -97.5t188.5 97.5t69.5 257.5t-70.5 258t-187.5 98t-187.5 -98.5t-70.5 -257.5z" />
<glyph unicode="&#xf5;" horiz-adv-x="1118" d="M88 500q0 162 64.5 280.5t172 182t234.5 63.5t234.5 -63.5t172 -182t64.5 -280.5q0 -160 -64.5 -279t-173 -182.5t-233.5 -63.5t-233.5 63.5t-173 182.5t-64.5 279zM194 1200q4 135 59.5 211t162.5 76q51 0 91 -24.5t85 -69.5q39 -35 61.5 -50.5t48.5 -15.5q76 0 86 148 l136 -9q-4 -135 -58.5 -210.5t-161.5 -75.5q-53 0 -91 23.5t-89 70.5q-35 33 -58.5 49t-47.5 16q-78 0 -88 -147zM301 500q0 -160 69.5 -257.5t188.5 -97.5t188.5 97.5t69.5 257.5t-70.5 258t-187.5 98t-187.5 -98.5t-70.5 -257.5z" />
<glyph unicode="&#xf6;" horiz-adv-x="1118" d="M88 500q0 162 64.5 280.5t172 182t234.5 63.5t234.5 -63.5t172 -182t64.5 -280.5q0 -160 -64.5 -279t-173 -182.5t-233.5 -63.5t-233.5 63.5t-173 182.5t-64.5 279zM240 1307q0 49 31.5 81.5t82.5 32.5q49 0 82 -32.5t33 -81.5q0 -47 -33 -81t-82 -34t-81.5 32.5 t-32.5 82.5zM301 500q0 -160 69.5 -257.5t188.5 -97.5t188.5 97.5t69.5 257.5t-70.5 258t-187.5 98t-187.5 -98.5t-70.5 -257.5zM649 1307q0 49 33 81.5t82 32.5q51 0 82.5 -32.5t31.5 -81.5t-32.5 -82t-81.5 -33t-82 34t-33 81z" />
<glyph unicode="&#xf7;" d="M70 600v152h897v-152h-897zM391 307q0 53 37 88t90 35t90 -35t37 -88q0 -55 -36 -90t-91 -35t-91 35t-36 90zM391 1044q0 53 37 88t90 35t90 -34.5t37 -88.5q0 -55 -36 -89.5t-91 -34.5t-91 34.5t-36 89.5z" />
<glyph unicode="&#xf8;" horiz-adv-x="1118" d="M88 500q0 162 64.5 280.5t172 182t234.5 63.5q160 0 281 -96l98 121l86 -68l-106 -129q112 -143 112 -354q0 -160 -64.5 -279t-173 -182.5t-233.5 -63.5q-158 0 -280 95l-99 -119l-86 67l107 129q-113 143 -113 353zM291 510q0 -123 37 -207l399 492q-68 68 -168 67 q-119 0 -193.5 -98t-74.5 -254zM389 207q72 -68 170 -68q119 0 193.5 97.5t74.5 252.5q0 123 -36 209z" />
<glyph unicode="&#xf9;" horiz-adv-x="1128" d="M145 371v630h207v-604q0 -129 40 -186t130 -57q70 0 123 34.5t119 116.5v696h207v-1001h-170l-17 152h-6q-74 -86 -150.5 -131.5t-174.5 -45.5q-308 1 -308 396zM253 1489l144 137l297 -350l-105 -102z" />
<glyph unicode="&#xfa;" horiz-adv-x="1128" d="M145 371v630h207v-604q0 -129 40 -186t130 -57q70 0 123 34.5t119 116.5v696h207v-1001h-170l-17 152h-6q-74 -86 -150.5 -131.5t-174.5 -45.5q-308 1 -308 396zM456 1276l297 350l144 -137l-336 -315z" />
<glyph unicode="&#xfb;" horiz-adv-x="1128" d="M145 371v630h207v-604q0 -129 40 -186t130 -57q70 0 123 34.5t119 116.5v696h207v-1001h-170l-17 152h-6q-74 -86 -150.5 -131.5t-174.5 -45.5q-308 1 -308 396zM241 1237l230 281h208l230 -281l-84 -78l-246 219h-8l-246 -219z" />
<glyph unicode="&#xfc;" horiz-adv-x="1128" d="M145 371v630h207v-604q0 -129 40 -186t130 -57q70 0 123 34.5t119 116.5v696h207v-1001h-170l-17 152h-6q-74 -86 -150.5 -131.5t-174.5 -45.5q-308 1 -308 396zM256 1307q0 49 31.5 81.5t82.5 32.5q49 0 82 -32.5t33 -81.5q0 -47 -33 -81t-82 -34t-81.5 32.5t-32.5 82.5 zM665 1307q0 49 33 81.5t82 32.5q51 0 82.5 -32.5t31.5 -81.5t-32.5 -82t-81.5 -33t-82 34t-33 81z" />
<glyph unicode="&#xfd;" horiz-adv-x="989" d="M25 1001h211l186 -518l61 -186l31 -96h8q23 74 35 127l45 155l162 518h201l-369 -1062q-63 -176 -153.5 -267.5t-239.5 -91.5q-68 1 -125 21l39 161q47 -14 73 -14q147 0 211 191l21 67zM397 1276l297 350l144 -137l-336 -315z" />
<glyph unicode="&#xfe;" horiz-adv-x="1146" d="M158 -408v1860h207v-383l-5 -164q150 121 289 121q193 0 299.5 -137t106.5 -373q0 -166 -59.5 -288t-158 -187.5t-212.5 -65.5q-131 0 -265 107l5 -164v-326h-207zM365 240q109 -92 219 -93q114 0 186 97.5t72 269.5q0 340 -238 340q-111 0 -239 -123v-491z" />
<glyph unicode="&#xff;" horiz-adv-x="989" d="M25 1001h211l186 -518l61 -186l31 -96h8q23 74 35 127l45 155l162 518h201l-369 -1062q-63 -176 -153.5 -267.5t-239.5 -91.5q-68 1 -125 21l39 161q47 -14 73 -14q147 0 211 191l21 67zM197 1307q0 49 31.5 81.5t82.5 32.5q49 0 82 -32.5t33 -81.5q0 -47 -33 -81 t-82 -34t-81.5 32.5t-32.5 82.5zM606 1307q0 49 33 81.5t82 32.5q51 0 82.5 -32.5t31.5 -81.5t-32.5 -82t-81.5 -33t-82 34t-33 81z" />
<glyph unicode="&#x152;" horiz-adv-x="1748" d="M102 676q0 322 177.5 493.5t488.5 171.5h858v-176h-551v-377h461v-176h-461v-436h572v-176h-889q-201 0 -348.5 79t-227.5 230.5t-80 366.5zM317 676q0 -250 120 -378t345 -128h84v1001h-84q-225 0 -345 -123.5t-120 -371.5z" />
<glyph unicode="&#x153;" horiz-adv-x="1708" d="M88 500q0 162 62.5 280.5t167 182t229.5 63.5q113 0 205 -59.5t147 -169.5q59 109 148.5 169t193.5 60q184 0 287.5 -130t103.5 -347q0 -53 -8 -103h-635q8 -139 91 -222t202 -83q63 0 119.5 20.5t118.5 59.5l73 -139q-160 -106 -338 -107q-109 0 -201.5 60.5 t-152.5 167.5q-121 -227 -358 -228q-125 0 -228.5 62.5t-165 182.5t-61.5 280zM299 500q0 -160 68.5 -257.5t179.5 -97.5q112 0 181 97.5t69 257.5t-69 258t-181 98q-111 0 -179.5 -98.5t-68.5 -257.5zM989 580h463q0 135 -56.5 209.5t-160.5 74.5q-96 0 -163.5 -76.5 t-82.5 -207.5z" />
<glyph unicode="&#x178;" horiz-adv-x="1003" d="M-6 1341h223l158 -358q84 -203 125 -293h8l49 111l78 182l158 358h217l-404 -833v-508h-209v508zM174 1569q0 49 32 80.5t81 31.5t81 -31.5t32 -80.5t-32 -81t-81 -32t-81 32t-32 81zM604 1569q0 49 32 80.5t81 31.5t81 -31.5t32 -80.5t-32 -81t-81 -32t-81 32t-32 81z " />
<glyph unicode="&#x2c6;" horiz-adv-x="1118" d="M225 1237l230 281h208l230 -281l-84 -78l-246 219h-8l-246 -219z" />
<glyph unicode="&#x2dc;" horiz-adv-x="1118" d="M194 1200q4 135 59.5 211t162.5 76q51 0 91 -24.5t85 -69.5q39 -35 61.5 -50.5t48.5 -15.5q76 0 86 148l136 -9q-4 -135 -58.5 -210.5t-161.5 -75.5q-53 0 -91 23.5t-89 70.5q-35 33 -58.5 49t-47.5 16q-78 0 -88 -147z" />
<glyph unicode="&#x2000;" horiz-adv-x="905" />
<glyph unicode="&#x2001;" horiz-adv-x="1810" />
<glyph unicode="&#x2002;" horiz-adv-x="905" />
<glyph unicode="&#x2003;" horiz-adv-x="1810" />
<glyph unicode="&#x2004;" horiz-adv-x="603" />
<glyph unicode="&#x2005;" horiz-adv-x="452" />
<glyph unicode="&#x2006;" horiz-adv-x="301" />
<glyph unicode="&#x2007;" horiz-adv-x="301" />
<glyph unicode="&#x2008;" horiz-adv-x="226" />
<glyph unicode="&#x2009;" horiz-adv-x="362" />
<glyph unicode="&#x200a;" horiz-adv-x="100" />
<glyph unicode="&#x2010;" horiz-adv-x="649" d="M86 438v154h479v-154h-479z" />
<glyph unicode="&#x2011;" horiz-adv-x="649" d="M86 438v154h479v-154h-479z" />
<glyph unicode="&#x2012;" horiz-adv-x="649" d="M86 438v154h479v-154h-479z" />
<glyph unicode="&#x2013;" horiz-adv-x="983" d="M86 446v140h811v-140h-811z" />
<glyph unicode="&#x2014;" horiz-adv-x="1638" d="M86 446v140h1466v-140h-1466z" />
<glyph unicode="&#x2018;" horiz-adv-x="540" d="M115 1032q0 254 239 385l54 -94q-84 -51 -124 -110.5t-40 -145.5q6 2 18 2q51 0 87 -31.5t36 -85.5q0 -59 -34 -94t-89 -35q-70 0 -108.5 54.5t-38.5 154.5z" />
<glyph unicode="&#x2019;" horiz-adv-x="540" d="M133 930q84 51 124 110.5t40 145.5q-6 -2 -18 -2q-51 0 -87 31.5t-36 84.5q0 59 33.5 94.5t89.5 35.5q69 0 108 -54.5t39 -154.5q0 -254 -240 -385z" />
<glyph unicode="&#x201a;" horiz-adv-x="540" d="M133 -217q84 51 124 110.5t40 145.5q-6 -2 -18 -2q-51 0 -87 31.5t-36 84.5q0 59 33.5 94.5t89.5 35.5q69 0 108 -54.5t39 -154.5q0 -254 -240 -385z" />
<glyph unicode="&#x201c;" horiz-adv-x="937" d="M115 1032q0 254 239 385l54 -94q-84 -51 -124 -110.5t-40 -145.5q6 2 18 2q51 0 87 -31.5t36 -85.5q0 -59 -34 -94t-89 -35q-70 0 -108.5 54.5t-38.5 154.5zM512 1032q0 254 239 385l54 -94q-84 -51 -124 -110.5t-40 -145.5q6 2 18 2q51 0 87 -31.5t36 -85.5 q0 -59 -34 -94t-89 -35q-70 0 -108.5 54.5t-38.5 154.5z" />
<glyph unicode="&#x201d;" horiz-adv-x="937" d="M133 930q84 51 124 110.5t40 145.5q-6 -2 -18 -2q-51 0 -87 31.5t-36 84.5q0 59 33.5 94.5t89.5 35.5q69 0 108 -54.5t39 -154.5q0 -254 -240 -385zM530 930q84 51 124 110.5t40 145.5q-6 -2 -18 -2q-51 0 -87 31.5t-36 84.5q0 59 33.5 94.5t89.5 35.5q69 0 108 -54.5 t39 -154.5q0 -254 -240 -385z" />
<glyph unicode="&#x201e;" horiz-adv-x="937" d="M133 -217q84 51 124 110.5t40 145.5q-6 -2 -18 -2q-51 0 -87 31.5t-36 84.5q0 59 33.5 94.5t89.5 35.5q69 0 108 -54.5t39 -154.5q0 -254 -240 -385zM530 -217q84 51 124 110.5t40 145.5q-6 -2 -18 -2q-51 0 -87 31.5t-36 84.5q0 59 33.5 94.5t89.5 35.5q69 0 108 -54.5 t39 -154.5q0 -254 -240 -385z" />
<glyph unicode="&#x2022;" horiz-adv-x="647" d="M82 539q0 113 70.5 185.5t171.5 72.5q100 0 170.5 -73t70.5 -185q0 -113 -70.5 -185.5t-170.5 -72.5q-101 0 -171.5 72.5t-70.5 185.5z" />
<glyph unicode="&#x2026;" horiz-adv-x="2041" d="M201 121q0 63 40 105t99 42t99.5 -42t40.5 -105t-40 -104.5t-100 -41.5q-59 0 -99 41t-40 105zM885 121q0 63 40 105t99 42t99.5 -42t40.5 -105t-40 -104.5t-100 -41.5q-59 0 -99 41t-40 105zM1569 121q0 63 40 105t99 42t99.5 -42t40.5 -105t-40 -104.5t-100 -41.5 q-59 0 -99 41t-40 105z" />
<glyph unicode="&#x202f;" horiz-adv-x="362" />
<glyph unicode="&#x2039;" horiz-adv-x="567" d="M94 440v152l279 311l84 -69l-238 -318l238 -319l-84 -68z" />
<glyph unicode="&#x203a;" horiz-adv-x="567" d="M111 197l237 319l-237 318l84 69l278 -311v-152l-278 -311z" />
<glyph unicode="&#x205f;" horiz-adv-x="452" />
<glyph unicode="&#x20ac;" d="M45 469v104l119 9q-2 23 -2 67q0 41 2 62h-119v104l131 8q39 238 175 372t339 134q90 0 172 -43t142 -117l-119 -114q-94 111 -201 110q-119 0 -195.5 -89t-103.5 -251h498v-114h-508q-2 -18 -2 -56q0 -49 2 -71h426v-115h-414q29 -158 102.5 -244t186.5 -86q70 0 124 34 t103 101l119 -108q-145 -190 -358 -191q-188 0 -318.5 130.5t-169.5 363.5h-131z" />
<glyph unicode="&#x2122;" horiz-adv-x="1331" d="M6 1253v131h537v-131h-197v-505h-143v505h-197zM639 748v636h170l92 -227l53 -153h9l53 153l90 227h170v-636h-133v256l16 221h-8l-139 -381h-109l-139 381h-8l16 -221v-256h-133z" />
<glyph unicode="&#x25fc;" horiz-adv-x="1003" d="M0 0v1004h1004v-1004h-1004z" />
</font>
</defs>
</svg>
